<svg id="visual" viewBox="0 0 960 540" width="960" height="540" xmlns="http://www.w3.org/2000/svg" xmlns:xlink="http://www.w3.org/1999/xlink" version="1.1"><rect x="0" y="0" width="960" height="540" fill="#001220"></rect><path d="M0 331L22.8 334.5C45.7 338 91.3 345 137 344.5C182.7 344 228.3 336 274 343C319.7 350 365.3 372 411.2 372.2C457 372.3 503 350.7 548.8 344.8C594.7 339 640.3 349 686 355.2C731.7 361.3 777.3 363.7 823 357.8C868.7 352 914.3 338 937.2 331L960 324L960 541L937.2 541C914.3 541 868.7 541 823 541C777.3 541 731.7 541 686 541C640.3 541 594.7 541 548.8 541C503 541 457 541 411.2 541C365.3 541 319.7 541 274 541C228.3 541 182.7 541 137 541C91.3 541 45.7 541 22.8 541L0 541Z" fill="#0064ff"></path><path d="M0 352L22.8 353.7C45.7 355.3 91.3 358.7 137 363.3C182.7 368 228.3 374 274 381C319.7 388 365.3 396 411.2 392.7C457 389.3 503 374.7 548.8 366C594.7 357.3 640.3 354.7 686 355.8C731.7 357 777.3 362 823 367.2C868.7 372.3 914.3 377.7 937.2 380.3L960 383L960 541L937.2 541C914.3 541 868.7 541 823 541C777.3 541 731.7 541 686 541C640.3 541 594.7 541 548.8 541C503 541 457 541 411.2 541C365.3 541 319.7 541 274 541C228.3 541 182.7 541 137 541C91.3 541 45.7 541 22.8 541L0 541Z" fill="#1357e6"></path><path d="M0 426L22.8 421.3C45.7 416.7 91.3 407.3 137 407.5C182.7 407.7 228.3 417.3 274 415.2C319.7 413 365.3 399 411.2 395.5C457 392 503 399 548.8 404.3C594.7 409.7 640.3 413.3 686 415.2C731.7 417 777.3 417 823 409.3C868.7 401.7 914.3 386.3 937.2 378.7L960 371L960 541L937.2 541C914.3 541 868.7 541 823 541C777.3 541 731.7 541 686 541C640.3 541 594.7 541 548.8 541C503 541 457 541 411.2 541C365.3 541 319.7 541 274 541C228.3 541 182.7 541 137 541C91.3 541 45.7 541 22.8 541L0 541Z" fill="#184acd"></path><path d="M0 454L22.8 445.8C45.7 437.7 91.3 421.3 137 416.7C182.7 412 228.3 419 274 418.5C319.7 418 365.3 410 411.2 411.3C457 412.7 503 423.3 548.8 425.3C594.7 427.3 640.3 420.7 686 418C731.7 415.3 777.3 416.7 823 417.7C868.7 418.7 914.3 419.3 937.2 419.7L960 420L960 541L937.2 541C914.3 541 868.7 541 823 541C777.3 541 731.7 541 686 541C640.3 541 594.7 541 548.8 541C503 541 457 541 411.2 541C365.3 541 319.7 541 274 541C228.3 541 182.7 541 137 541C91.3 541 45.7 541 22.8 541L0 541Z" fill="#193eb5"></path><path d="M0 434L22.8 441.2C45.7 448.3 91.3 462.7 137 462.3C182.7 462 228.3 447 274 442.8C319.7 438.7 365.3 445.3 411.2 448.5C457 451.7 503 451.3 548.8 450.7C594.7 450 640.3 449 686 450.3C731.7 451.7 777.3 455.3 823 452.7C868.7 450 914.3 441 937.2 436.5L960 432L960 541L937.2 541C914.3 541 868.7 541 823 541C777.3 541 731.7 541 686 541C640.3 541 594.7 541 548.8 541C503 541 457 541 411.2 541C365.3 541 319.7 541 274 541C228.3 541 182.7 541 137 541C91.3 541 45.7 541 22.8 541L0 541Z" fill="#17339e"></path><path d="M0 484L22.8 484C45.7 484 91.3 484 137 480C182.7 476 228.3 468 274 465.3C319.7 462.7 365.3 465.3 411.2 471C457 476.7 503 485.3 548.8 488.3C594.7 491.3 640.3 488.7 686 484C731.7 479.3 777.3 472.7 823 473.2C868.7 473.7 914.3 481.3 937.2 485.2L960 489L960 541L937.2 541C914.3 541 868.7 541 823 541C777.3 541 731.7 541 686 541C640.3 541 594.7 541 548.8 541C503 541 457 541 411.2 541C365.3 541 319.7 541 274 541C228.3 541 182.7 541 137 541C91.3 541 45.7 541 22.8 541L0 541Z" fill="#132888"></path><path d="M0 508L22.8 506.2C45.7 504.3 91.3 500.7 137 501.7C182.7 502.7 228.3 508.3 274 512.3C319.7 516.3 365.3 518.7 411.2 516.8C457 515 503 509 548.8 504.5C594.7 500 640.3 497 686 499.2C731.7 501.3 777.3 508.7 823 512.2C868.7 515.7 914.3 515.3 937.2 515.2L960 515L960 541L937.2 541C914.3 541 868.7 541 823 541C777.3 541 731.7 541 686 541C640.3 541 594.7 541 548.8 541C503 541 457 541 411.2 541C365.3 541 319.7 541 274 541C228.3 541 182.7 541 137 541C91.3 541 45.7 541 22.8 541L0 541Z" fill="#0e1d72"></path></svg>