<svg id="visual" viewBox="0 0 900 600" width="900" height="600" xmlns="http://www.w3.org/2000/svg" xmlns:xlink="http://www.w3.org/1999/xlink" version="1.1"><path d="M0 433L21.5 425.7C43 418.3 86 403.7 128.8 405C171.7 406.3 214.3 423.7 257.2 425.5C300 427.3 343 413.7 385.8 401.3C428.7 389 471.3 378 514.2 379.2C557 380.3 600 393.7 642.8 394.7C685.7 395.7 728.3 384.3 771.2 378.3C814 372.3 857 371.7 878.5 371.3L900 371L900 601L878.5 601C857 601 814 601 771.2 601C728.3 601 685.7 601 642.8 601C600 601 557 601 514.2 601C471.3 601 428.7 601 385.8 601C343 601 300 601 257.2 601C214.3 601 171.7 601 128.8 601C86 601 43 601 21.5 601L0 601Z" fill="#5e54e7"></path><path d="M0 416L21.5 412.8C43 409.7 86 403.3 128.8 402.7C171.7 402 214.3 407 257.2 412.7C300 418.3 343 424.7 385.8 422.8C428.7 421 471.3 411 514.2 418.3C557 425.7 600 450.3 642.8 452C685.7 453.7 728.3 432.3 771.2 428.3C814 424.3 857 437.7 878.5 444.3L900 451L900 601L878.5 601C857 601 814 601 771.2 601C728.3 601 685.7 601 642.8 601C600 601 557 601 514.2 601C471.3 601 428.7 601 385.8 601C343 601 300 601 257.2 601C214.3 601 171.7 601 128.8 601C86 601 43 601 21.5 601L0 601Z" fill="#6359eb"></path><path d="M0 495L21.5 491.2C43 487.3 86 479.7 128.8 477C171.7 474.3 214.3 476.7 257.2 473.2C300 469.7 343 460.3 385.8 457.3C428.7 454.3 471.3 457.7 514.2 466C557 474.3 600 487.7 642.8 485C685.7 482.3 728.3 463.7 771.2 463.8C814 464 857 483 878.5 492.5L900 502L900 601L878.5 601C857 601 814 601 771.2 601C728.3 601 685.7 601 642.8 601C600 601 557 601 514.2 601C471.3 601 428.7 601 385.8 601C343 601 300 601 257.2 601C214.3 601 171.7 601 128.8 601C86 601 43 601 21.5 601L0 601Z" fill="#685ef0"></path><path d="M0 498L21.5 502.2C43 506.3 86 514.7 128.8 519C171.7 523.3 214.3 523.7 257.2 523.5C300 523.3 343 522.7 385.8 522.7C428.7 522.7 471.3 523.3 514.2 517.2C557 511 600 498 642.8 501C685.7 504 728.3 523 771.2 523.7C814 524.3 857 506.7 878.5 497.8L900 489L900 601L878.5 601C857 601 814 601 771.2 601C728.3 601 685.7 601 642.8 601C600 601 557 601 514.2 601C471.3 601 428.7 601 385.8 601C343 601 300 601 257.2 601C214.3 601 171.7 601 128.8 601C86 601 43 601 21.5 601L0 601Z" fill="#6d63f5"></path><path d="M0 569L21.5 566.2C43 563.3 86 557.7 128.8 557.2C171.7 556.7 214.3 561.3 257.2 563C300 564.7 343 563.3 385.8 557.5C428.7 551.7 471.3 541.3 514.2 536C557 530.7 600 530.3 642.8 531.5C685.7 532.7 728.3 535.3 771.2 536.3C814 537.3 857 536.7 878.5 536.3L900 536L900 601L878.5 601C857 601 814 601 771.2 601C728.3 601 685.7 601 642.8 601C600 601 557 601 514.2 601C471.3 601 428.7 601 385.8 601C343 601 300 601 257.2 601C214.3 601 171.7 601 128.8 601C86 601 43 601 21.5 601L0 601Z" fill="#7169fa"></path></svg>