<svg id="visual" viewBox="0 0 900 600" width="900" height="600" xmlns="http://www.w3.org/2000/svg" xmlns:xlink="http://www.w3.org/1999/xlink" version="1.1"><rect x="0" y="0" width="900" height="600" fill="#001220"></rect><path d="M0 430L21.5 424.8C43 419.7 86 409.3 128.8 407.2C171.7 405 214.3 411 257.2 418.7C300 426.3 343 435.7 385.8 433.5C428.7 431.3 471.3 417.7 514.2 415.3C557 413 600 422 642.8 426.3C685.7 430.7 728.3 430.3 771.2 420.2C814 410 857 390 878.5 380L900 370L900 601L878.5 601C857 601 814 601 771.2 601C728.3 601 685.7 601 642.8 601C600 601 557 601 514.2 601C471.3 601 428.7 601 385.8 601C343 601 300 601 257.2 601C214.3 601 171.7 601 128.8 601C86 601 43 601 21.5 601L0 601Z" fill="#7269fa"></path><path d="M0 454L21.5 457C43 460 86 466 128.8 465.2C171.7 464.3 214.3 456.7 257.2 455.7C300 454.7 343 460.3 385.8 463.3C428.7 466.3 471.3 466.7 514.2 459.2C557 451.7 600 436.3 642.8 429.7C685.7 423 728.3 425 771.2 427.7C814 430.3 857 433.7 878.5 435.3L900 437L900 601L878.5 601C857 601 814 601 771.2 601C728.3 601 685.7 601 642.8 601C600 601 557 601 514.2 601C471.3 601 428.7 601 385.8 601C343 601 300 601 257.2 601C214.3 601 171.7 601 128.8 601C86 601 43 601 21.5 601L0 601Z" fill="#5e54e7"></path><path d="M0 453L21.5 450.7C43 448.3 86 443.7 128.8 452.7C171.7 461.7 214.3 484.3 257.2 493.3C300 502.3 343 497.7 385.8 490.3C428.7 483 471.3 473 514.2 474.2C557 475.3 600 487.7 642.8 484.3C685.7 481 728.3 462 771.2 461.2C814 460.3 857 477.7 878.5 486.3L900 495L900 601L878.5 601C857 601 814 601 771.2 601C728.3 601 685.7 601 642.8 601C600 601 557 601 514.2 601C471.3 601 428.7 601 385.8 601C343 601 300 601 257.2 601C214.3 601 171.7 601 128.8 601C86 601 43 601 21.5 601L0 601Z" fill="#4840d5"></path><path d="M0 525L21.5 523.8C43 522.7 86 520.3 128.8 521.5C171.7 522.7 214.3 527.3 257.2 522.3C300 517.3 343 502.7 385.8 494.5C428.7 486.3 471.3 484.7 514.2 484.8C557 485 600 487 642.8 496.3C685.7 505.7 728.3 522.3 771.2 524.8C814 527.3 857 515.7 878.5 509.8L900 504L900 601L878.5 601C857 601 814 601 771.2 601C728.3 601 685.7 601 642.8 601C600 601 557 601 514.2 601C471.3 601 428.7 601 385.8 601C343 601 300 601 257.2 601C214.3 601 171.7 601 128.8 601C86 601 43 601 21.5 601L0 601Z" fill="#302cc2"></path><path d="M0 545L21.5 542C43 539 86 533 128.8 531.5C171.7 530 214.3 533 257.2 540.8C300 548.7 343 561.3 385.8 563C428.7 564.7 471.3 555.3 514.2 554C557 552.7 600 559.3 642.8 557.3C685.7 555.3 728.3 544.7 771.2 544C814 543.3 857 552.7 878.5 557.3L900 562L900 601L878.5 601C857 601 814 601 771.2 601C728.3 601 685.7 601 642.8 601C600 601 557 601 514.2 601C471.3 601 428.7 601 385.8 601C343 601 300 601 257.2 601C214.3 601 171.7 601 128.8 601C86 601 43 601 21.5 601L0 601Z" fill="#0716b0"></path></svg>