<svg id="visual" viewBox="0 0 900 600" width="900" height="600" xmlns="http://www.w3.org/2000/svg" xmlns:xlink="http://www.w3.org/1999/xlink" version="1.1"><path d="M389 0L395.5 14.3C402 28.7 415 57.3 450.7 85.8C486.3 114.3 544.7 142.7 575.8 171.2C607 199.7 611 228.3 586.2 257C561.3 285.7 507.7 314.3 491.8 343C476 371.7 498 400.3 518.2 428.8C538.3 457.3 556.7 485.7 548.2 514.2C539.7 542.7 504.3 571.3 486.7 585.7L469 600L0 600L0 585.7C0 571.3 0 542.7 0 514.2C0 485.7 0 457.3 0 428.8C0 400.3 0 371.7 0 343C0 314.3 0 285.7 0 257C0 228.3 0 199.7 0 171.2C0 142.7 0 114.3 0 85.8C0 57.3 0 28.7 0 14.3L0 0Z" fill="#3165ef" stroke-linecap="round" stroke-linejoin="miter"></path></svg>
